<?xml version="1.0" standalone="no"?>
<!DOCTYPE svg PUBLIC "-//W3C//DTD SVG 20010904//EN"
 "http://www.w3.org/TR/2001/REC-SVG-20010904/DTD/svg10.dtd">
<svg version="1.0" xmlns="http://www.w3.org/2000/svg"
 width="512.000000pt" height="512.000000pt" viewBox="0 0 512.000000 512.000000"
 preserveAspectRatio="xMidYMid meet">

<g transform="translate(0.000000,512.000000) scale(0.100000,-0.100000)"
fill="#000000" stroke="none">
<path d="M1 3903 c1 -712 5 -1179 10 -1123 76 880 613 1671 1404 2067 283 142
612 235 925 262 56 5 -411 9 -1122 10 l-1218 1 1 -1217z"/>
<path d="M2780 5109 c880 -76 1671 -613 2067 -1404 142 -283 235 -612 262
-925 5 -56 9 411 10 1123 l1 1217 -1217 -1 c-712 -1 -1179 -5 -1123 -10z"/>
<path d="M2645 4799 c-304 -32 -631 -222 -857 -496 -15 -18 -30 -33 -33 -33
-4 0 -6 35 -4 78 3 62 10 90 34 139 l31 61 -31 -21 c-94 -68 -208 -214 -269
-349 -109 -238 -161 -558 -137 -836 14 -157 31 -225 75 -306 37 -65 61 -142
97 -301 l23 -100 9 55 c39 258 57 309 132 384 77 77 83 121 26 216 -44 74 -61
126 -61 193 0 157 121 268 385 356 394 130 836 110 1170 -53 127 -63 207 -128
250 -207 27 -48 30 -63 30 -139 -1 -78 -4 -92 -43 -176 -55 -120 -57 -167 -7
-244 49 -76 56 -106 62 -264 l6 -140 22 26 c15 17 26 51 35 104 19 120 43 185
88 242 114 145 129 397 46 766 -27 119 -24 167 15 245 23 44 90 107 134 126
l31 13 -76 49 c-123 81 -258 122 -457 139 l-84 7 24 18 c40 31 157 90 235 118
l75 27 -78 37 c-228 106 -515 123 -808 47 -60 -16 -118 -32 -127 -35 -54 -21
24 126 108 204 73 69 78 66 -71 50z"/>
<path d="M1 1218 l-1 -1218 2560 0 2560 0 -1 1218 c-1 711 -5 1178 -10 1122
-48 -559 -296 -1119 -671 -1515 l-81 -86 -41 83 c-72 147 -142 227 -306 347
-52 39 -132 91 -178 117 -46 26 -81 52 -78 58 51 114 59 145 64 241 3 79 0
119 -17 189 -46 192 -166 389 -305 498 l-50 40 -56 -119 c-31 -65 -80 -155
-108 -199 l-52 -81 0 -154 c0 -167 -16 -260 -64 -379 -76 -187 -240 -344 -504
-483 l-94 -50 -41 23 c-92 51 -223 147 -291 215 -172 170 -246 343 -246 577
l0 118 -49 63 c-70 89 -134 191 -187 299 -26 51 -48 95 -50 97 -7 8 -102 -81
-155 -148 -73 -89 -124 -188 -150 -290 -26 -96 -28 -266 -5 -364 9 -38 16 -72
16 -77 0 -4 -38 -27 -84 -49 -113 -55 -339 -206 -405 -272 -60 -61 -144 -181
-161 -234 -6 -19 -15 -35 -20 -35 -15 0 -141 143 -225 255 -287 382 -463 842
-504 1315 -5 56 -9 -411 -10 -1122z m2183 -424 c14 -13 16 -63 16 -390 0 -418
7 -381 -72 -368 l-38 7 0 365 c0 326 2 367 17 384 20 22 56 23 77 2z m814 4
c9 -9 12 -108 12 -385 l0 -372 -37 -6 c-21 -4 -45 -7 -53 -8 -22 -3 -26 726
-4 761 16 24 62 30 82 10z"/>
</g>
</svg>
